<svg width="50" height="50" viewBox="0 0 50 50" fill="none" xmlns="http://www.w3.org/2000/svg">
<circle cx="25" cy="25" r="25" fill="#E9282D"/>
<path fill-rule="evenodd" clip-rule="evenodd" d="M36.35 13H21.65C20.75 13 20 13.75 20 14.65V17.5H21.5V15.025C21.5 14.725 21.725 14.5 22.025 14.5H35.975C36.275 14.5 36.5 14.725 36.5 15.025V25.975C36.5 26.275 36.275 26.5 35.975 26.5H33.5V28H36.5C37.4 28 38 27.325 38 26.425V14.65C38 13.75 37.25 13 36.35 13ZM30.35 19H15.65C14.75 19 14 19.75 14 20.65V32.35C14 33.25 14.75 34 15.65 34H20L23 37L26 34H30.275C31.175 34 31.925 33.25 31.925 32.35V20.65C32 19.75 31.25 19 30.35 19ZM30.5 31.975C30.5 32.275 30.275 32.5 29.975 32.5H25.25L23 34.75L20.75 32.5H16.025C15.725 32.5 15.5 32.275 15.5 31.975V21.025C15.5 20.725 15.725 20.5 16.025 20.5H29.975C30.275 20.5 30.5 20.725 30.5 21.025V31.975Z" fill="white"/>
</svg>
